# xmcd
#
# Track frame offsets: 
#        150
#        14330
#        28980
#        40425
#        53772
#        69052
#        83520
#        97985
#        112100
#        127282
#        141600
#        157747
#        171582
#        184647
#        196997
#        210385
#
# Disc length: 2990 seconds
#
# Revision: 0
# Processed by: cddbd v1.5.2PL0 Copyright (c) Steve Scherf et al.
# Submitted via: ExactAudioCopy v1.3
#
DISCID=df0bac10
DTITLE=石原裕次郎 - 20世紀の戦士 石原裕次郎 BIG MAN the greatest collection Disc 1 00
DTITLE=CH-233-42
DYEAR=1900
DGENRE=JPop
TTITLE0=狂った果実
TTITLE1=想い出
TTITLE2=俺は待ってるぜ
TTITLE3=泣きはしないさ
TTITLE4=俺は渡り鳥
TTITLE5=ひとりぽっちの青春
TTITLE6=錆びたナイフ
TTITLE7=逢えてよかった
TTITLE8=何とか言えよ
TTITLE9=男の横丁
TTITLE10=夜霧のブルース
TTITLE11=口笛が聞こえる港町
TTITLE12=嵐を呼ぶ男
TTITLE13=鷲と鷹
TTITLE14=俺は東京のタフ・ガイさ
TTITLE15=足にさわった青春
EXTD=
EXTT0=
EXTT1=
EXTT2=
EXTT3=
EXTT4=
EXTT5=
EXTT6=
EXTT7=
EXTT8=
EXTT9=
EXTT10=
EXTT11=
EXTT12=
EXTT13=
EXTT14=
EXTT15=
PLAYORDER=
